Coordinates
version=1
nRows=10
nColumns=40
inDegrees=yes

Units are S.I. units (second, meters, Newtons, ...)
Angles are in degrees.

endheader
time	pelvis_tilt	pelvis_list	pelvis_rotation	pelvis_tx	pelvis_ty	pelvis_tz	hip_flexion_r	hip_adduction_r	hip_rotation_r	knee_angle_r	knee_angle_r_beta	ankle_angle_r	subtalar_angle_r	mtp_angle_r	hip_flexion_l	hip_adduction_l	hip_rotation_l	knee_angle_l	knee_angle_l_beta	ankle_angle_l	subtalar_angle_l	mtp_angle_l	lumbar_extension	lumbar_bending	lumbar_rotation	arm_flex_r	arm_add_r	arm_rot_r	elbow_flex_r	pro_sup_r	wrist_flex_r	wrist_dev_r	arm_flex_l	arm_add_l	arm_rot_l	elbow_flex_l	pro_sup_l	wrist_flex_l	wrist_dev_l
     29.34000000	     -4.97847924	     -4.34595539	      2.46347058	      0.67073214	      0.93047893	      0.50133987	     11.43035994	      3.03939070	    -15.14293833	     15.08833654	     15.08833654	     10.55633878	     -0.74776862	     -3.61858740	     34.13710172	    -10.28219210	      1.03687245	     50.47977278	     50.47977278	     11.43267741	    -18.99786921	     17.16258796	    -10.63792858	      6.19733184	      1.68094922	     21.61014814	    -20.77539418	     -5.77846512	     77.68875662	     44.68145883	      0.00000000	      0.00000000	     -6.23683744	     -8.72256967	      0.26646522	     30.51671871	     46.21773657	      0.00000000	      0.00000000
     29.35371429	     -5.14067070	     -4.25008623	      2.78848576	      0.66944313	      0.93041413	      0.50084509	     11.04337050	      2.93780285	    -15.32076566	     14.79313273	     14.79313273	     10.76353568	     -0.75491726	     -3.63670697	     34.52492298	     -9.68487124	      1.23328984	     46.68105116	     46.68105116	     11.60159909	    -18.78998229	     17.18847731	    -10.52071252	      6.13364876	      1.84799994	     23.24925602	    -20.87895452	     -5.86577048	     79.35136266	     44.64191815	      0.00000000	      0.00000000	     -6.94034717	     -8.46306722	      0.34661829	     30.34801657	     46.19001401	      0.00000000	      0.00000000
     29.36742857	     -5.12323225	     -4.24110241	      3.15348018	      0.66841822	      0.93045481	      0.50017005	     10.43750708	      2.88262571	    -15.84876049	     14.51018043	     14.51018043	     11.06012410	     -0.23529918	     -3.70078191	     34.44391772	     -9.17586373	      1.45214076	     42.46835464	     42.46835464	     10.67616483	    -18.47390901	     14.35728552	    -10.70823870	      6.27053843	      2.13726487	     23.95078823	    -21.26214995	     -5.49265140	     83.58784055	     44.54299138	      0.00000000	      0.00000000	     -7.82306876	     -8.35983497	      0.55363435	     31.03197141	     46.11439863	      0.00000000	      0.00000000
     29.38114286	     -5.27973329	     -4.16778288	      3.43612026	      0.66731099	      0.93020479	      0.49943391	     10.05563616	      2.79720084	    -15.97411512	     14.26038409	     14.26038409	     11.28719326	     -0.27095199	     -3.73185637	     34.53874228	     -8.56765818	      1.74792788	     38.49587881	     38.49587881	     10.82462397	    -17.66640976	     14.47983105	    -10.55386351	      6.25227201	      2.32462423	     25.63746393	    -21.18558421	     -5.62808868	     84.85804731	     44.51940997	      0.00000000	      0.00000000	     -8.40931015	     -8.17425552	      0.65919158	     30.90278954	     46.08565823	      0.00000000	      0.00000000
     29.39485714	     -5.29677733	     -4.14357744	      3.74062507	      0.66638797	      0.93006947	      0.49860153	      9.50037577	      2.75982444	    -16.21711600	     13.99905419	     13.99905419	     11.53710396	     -0.11599359	     -3.78124054	     34.36405943	     -8.04458255	      2.04180950	     34.53883621	     34.53883621	     10.84041798	    -16.55328405	     14.33829739	    -10.56695490	      6.30100043	      2.31258121	     27.22412152	    -20.82837259	     -5.52216212	     86.62409243	     44.47325905	      0.00000000	      0.00000000	     -9.10154514	     -8.04796073	      0.75920119	     30.91232488	     46.05505331	      0.00000000	      0.00000000
     29.40857143	     -5.28037919	     -4.29414154	      4.06502425	      0.66568511	      0.92970034	      0.49769052	      8.88624354	      2.86160395	    -16.85308427	     13.73508223	     13.73508223	     11.91395395	      0.61085986	     -3.84474250	     34.11529059	     -7.75580556	      2.29257644	     30.72171613	     30.72171613	     10.00538583	    -15.36381912	     11.97365513	    -10.65171576	      6.60312449	      2.34291478	     28.45994110	    -20.84044327	     -4.80676546	     89.52203095	     44.40510684	      0.00000000	      0.00000000	    -10.17500824	     -8.01751038	      0.95194081	     32.23489015	     45.99164056	      0.00000000	      0.00000000
     29.42228571	     -5.29901169	     -4.32852407	      4.28709670	      0.66506330	      0.92932870	      0.49682328	      8.35342913	      2.90582272	    -16.95241449	     13.53811586	     13.53811586	     12.20471610	      0.59969736	     -3.90192753	     33.90122991	     -7.44017720	      2.29839746	     27.37197891	     27.37197891	     10.11268108	    -13.78393217	     12.10853282	    -10.59232036	      6.69907747	      2.52710025	     29.98748157	    -20.51889941	     -4.77268873	     90.64953625	     44.38296334	      0.00000000	      0.00000000	    -10.64609283	     -7.92080491	      1.05988536	     32.25999698	     45.96685316	      0.00000000	      0.00000000
     29.43600000	     -5.24402084	     -4.45998294	      4.50382246	      0.66466582	      0.92893626	      0.49592952	      7.67040214	      3.06557686	    -17.16905482	     13.22508890	     13.22508890	     12.48523412	      0.82991817	     -3.94595673	     33.67101287	     -7.28244906	      2.16681115	     24.52285927	     24.52285927	     10.19525465	    -12.19235525	     12.11157806	    -10.60165033	      6.89972364	      2.52877014	     31.46747598	    -20.03265825	     -4.44012522	     92.16417290	     44.34349764	      0.00000000	      0.00000000	    -11.24826398	     -7.84196784	      1.17009835	     32.58245065	     45.93883904	      0.00000000	      0.00000000
     29.44971429	     -5.36146222	     -4.68290473	      4.68084666	      0.66422449	      0.92814908	      0.49497149	      7.27161624	      3.29092123	    -17.29661764	     13.07275310	     13.07275310	     12.78281480	      0.90453321	     -4.04264030	     33.74361920	     -7.20185352	      2.03331911	     22.27849563	     22.27849563	     10.16708823	    -11.02140022	     12.38694524	    -10.36375197	      7.22379424	      2.86228229	     32.85417779	    -19.85507540	     -4.33966088	     93.05067852	     44.32239671	      0.00000000	      0.00000000	    -11.56003242	     -7.72571261	      1.21782136	     32.74132240	     45.92675016	      0.00000000	      0.00000000
     29.46342857	     -5.16134659	     -4.70078931	      4.78721997	      0.66432574	      0.92795004	      0.49403598	      6.29656726	      3.37651707	    -17.42318954	     12.58419866	     12.58419866	     13.08716699	      1.30770109	     -4.05118960	     33.30980151	     -7.07387226	      1.38322976	     20.35974903	     20.35974903	     10.15536191	     -9.77332332	     12.48943907	    -10.53378581	      7.22145035	      2.72131312	     34.09673391	    -19.12581680	     -3.64223241	     94.62829219	     44.26947031	      0.00000000	      0.00000000	    -12.24225447	     -7.75807143	      1.29697518	     33.34685600	     45.90290472	      0.00000000	      0.00000000
